<?xml version="1.0" encoding="UTF-8"?>
<svg id="Capa_1" data-name="Capa 1" xmlns="http://www.w3.org/2000/svg" viewBox="0 0 985.6 254.58">
  <defs>
    <style>
      .cls-1 {
        fill: #0b0c0c;
      }

      .cls-2 {
        fill: #ed6b1d;
      }
    </style>
  </defs>
  <g>
    <path class="cls-1" d="M517.52,68.17c-7.31-7.23-16.4-12.89-27.29-16.99-10.89-4.09-23.56-6.14-38.03-6.14h-58.39c-1.4,0-2.54,1.14-2.54,2.54v157.1c0,1.4,1.14,2.54,2.54,2.54h58.39c14.47,0,27.14-2.23,38.03-6.68,10.88-4.46,19.98-10.44,27.29-17.97,7.3-7.52,12.78-16,16.44-25.43,3.65-9.42,5.48-19.03,5.48-28.82v-4.82c0-10.67-1.83-20.75-5.48-30.25-3.65-9.5-9.13-17.86-16.44-25.1ZM495.16,144.01c-2.05,5.33-4.97,9.86-8.77,13.59-3.8,3.72-8.44,6.57-13.92,8.55s-11.65,2.96-18.52,2.96h-19.38c-1.4,0-2.54-1.14-2.54-2.54v-80.83c0-1.4,1.14-2.54,2.54-2.54h19.38c6.87,0,13.04.92,18.52,2.74,5.48,1.83,10.12,4.53,13.92,8.11,3.8,3.58,6.72,8.04,8.77,13.37,2.04,5.34,3.07,11.51,3.07,18.52s-1.02,12.75-3.07,18.08Z"/>
    <path class="cls-1" d="M543.38,87.92v14.54c0,6.54,5.31,11.85,11.85,11.85h.95c1.4,0,2.54,1.14,2.54,2.54v86.97c0,1.4,1.14,2.54,2.54,2.54h34.8c1.4,0,2.54-1.14,2.54-2.54v-115.9c0-1.4-1.14-2.54-2.54-2.54h-50.15c-1.4,0-2.54,1.14-2.54,2.54Z"/>
    <path class="cls-1" d="M848.47,99.19c-5.85-5.7-12.9-10.15-21.15-13.37-8.26-3.21-17.57-4.82-27.95-4.82s-19.51,1.61-27.84,4.82c-8.33,3.22-15.42,7.67-21.26,13.37-5.85,5.7-10.34,12.35-13.48,19.95-3.14,7.6-4.71,15.78-4.71,24.55v5.26c0,8.48,1.49,16.44,4.49,23.89,2.99,7.45,7.38,14.03,13.15,19.73,5.77,5.7,12.82,10.16,21.15,13.37,8.33,3.21,17.82,4.82,28.49,4.82s20.16-1.61,28.49-4.82c8.33-3.21,15.37-7.67,21.15-13.37,5.77-5.7,10.15-12.27,13.15-19.73,2.99-7.45,4.49-15.41,4.49-23.89v-5.26c0-8.77-1.57-16.95-4.71-24.55-3.14-7.6-7.64-14.25-13.48-19.95ZM823.71,162.42c-2.05,4.75-5.08,8.44-9.1,11.07-4.02,2.63-9.1,3.95-15.23,3.95s-11.03-1.32-15.12-3.95c-4.09-2.63-7.16-6.32-9.2-11.07-2.05-4.75-3.07-10.12-3.07-16.11s1.06-11.8,3.18-16.55c2.12-4.75,5.22-8.51,9.32-11.29,4.09-2.77,9.06-4.16,14.9-4.16s10.81,1.39,14.91,4.16c4.09,2.78,7.19,6.54,9.31,11.29,2.12,4.75,3.18,10.27,3.18,16.55s-1.03,11.36-3.07,16.11Z"/>
    <path class="cls-1" d="M948.15,87.37l-18.63,83.69c-.26,1.16-1.29,1.99-2.48,1.99h0c-1.14,0-2.14-.76-2.45-1.86l-23.48-83.96c-.31-1.1-1.31-1.86-2.45-1.86h-34.55c-1.7,0-2.92,1.64-2.44,3.27l29.05,97.44c3.12,10.47,12.75,17.64,23.67,17.64h4.67c1.63,0,2.84,1.51,2.48,3.09l-.14.63c-.73,3.51-1.83,6.25-3.29,8.22-1.46,1.97-3.36,3.4-5.7,4.27-2.34.88-12.2,1.31-15.56,1.31h-19.33c-1.4,0-2.54,1.14-2.54,2.54v28.23c0,1.4,1.14,2.54,2.54,2.54h14.94c11.54,0,27.94-1.21,35.17-3.62,7.23-2.41,12.93-6.5,17.09-12.28,4.16-5.77,7.42-13.63,9.76-23.56l31.01-126.6c.39-1.6-.82-3.15-2.47-3.15h-32.42c-1.19,0-2.22.83-2.48,1.99Z"/>
    <g>
      <path class="cls-1" d="M743.06,88.98c-.49-.42-1.93-1.16-2.63-1.16l-31.24-.07c-4.22-.15-5.93,1.94-7.97,4.47l-22.72,28.07-20.87-28.06c-1.91-2.56-3.93-4.61-7.47-4.38l-30.13.06c-1.08,0-3.22,1.49-3.53,2.46-.31.97.24,2.95,1.13,4.05l39.53,48.96-22.11,24.46c-10.61,11.73-20.33,23.4-32.11,34.98,0,0-.85,3.38,0,3.42,2.05.1,6.36-.01,6.36-.01,19.45-.09,35.28-6.02,48.48-20.32l36.67-39.77,48.78-53.47c.66-.72.44-3.17-.17-3.69Z"/>
      <path class="cls-2" d="M743.9,206.03l-31.37.07c-3.88,0-7.28-2.11-9.05-5.45l-22.63-30.12,21.51-23.06,43.53,52.31c.62,1.07,1.25,2.54,1.34,3.41.1,1-2.06,2.84-3.33,2.84Z"/>
    </g>
    <path class="cls-1" d="M576.15,75.88c7.18,0,12.46-1.87,15.83-5.61,3.37-3.74,5.06-8.54,5.06-14.4s-1.69-10.66-5.06-14.4c-3.37-3.74-8.72-5.61-16.05-5.61s-12.5,1.87-15.94,5.61c-3.45,3.74-5.17,8.54-5.17,14.4s1.72,10.66,5.17,14.4c3.44,3.74,8.83,5.61,16.16,5.61Z"/>
  </g>
  <g>
    <path class="cls-1" d="M58.05,72.37v121.86c57.6-20.44,113.12-54.81,161.13-91.75,22.26-17.13,43.6-34.36,63.49-54.04,7.23-7.15,13.88-13.86,20.36-22.07-10.33,5.42-19.9,11.27-29.31,17.42-8.74,5.71-20.37,2.04-24.67-7.48-5.91-13.1-13.87-25.57-23.16-36.2l153.54-.02c-9.1,13-18.08,24.22-28.21,35.52-45.7,50.96-97.45,95.95-154.03,134.63-33.56,22.43-68.59,42.02-105.86,57.49-29.64,12.31-59.74,20.83-91.23,26.84L.05,72.45l58.01-.08Z"/>
    <path class="cls-1" d="M210.47,89.82l-28.71,18.53c-11.16-41.83-43.11-59.34-83.91-62.46l-14.55-1.11H.03S0,0,0,0l107.38.02c42.3,1.64,77.89,13.36,108.06,43.54,8.42,8.43,15.37,17.33,21.39,27.71-8.94,6.72-17.27,12.68-26.37,18.55Z"/>
    <path class="cls-2" d="M235.15,239.22c-.7-21.88-3.76-45.31-11.42-66.29,17.82-13.83,34.79-27.87,50.78-45.58,9.03,17.18,15.48,34.64,20.98,53.12l5.37,20.01c5.24,19.5-9.44,38.67-29.64,38.69l-36.07.04Z"/>
  </g>
</svg>