<?xml version="1.0" encoding="UTF-8"?>
<svg id="Capa_1" xmlns="http://www.w3.org/2000/svg" version="1.1" viewBox="0 0 512 512">
  <!-- Generator: Adobe Illustrator 30.6.0, SVG Export Plug-In . SVG Version: 2.1.4 Build 109)  -->
  <defs>
    <style>
      .st0 {
        fill: #1d1d1b;
      }

      .st1 {
        fill: #fff;
      }
    </style>
  </defs>
  <rect class="st0" width="512" height="512"/>
  <g>
    <path class="st1" d="M85.55,184.9v157.76c74.57-26.46,146.45-70.96,208.59-118.78,28.82-22.17,56.44-44.49,82.2-69.95,9.36-9.26,17.97-17.95,26.36-28.57-13.38,7.01-25.76,14.59-37.95,22.56-11.31,7.4-26.38,2.64-31.94-9.68-7.65-16.95-17.95-33.1-29.99-46.86l198.77-.03c-11.78,16.83-23.41,31.36-36.52,45.98-59.16,65.98-126.16,124.21-199.41,174.29-43.45,29.03-88.8,54.39-137.05,74.43-38.37,15.93-77.34,26.97-118.11,34.75l-.06-235.79,75.09-.1Z"/>
    <path class="st1" d="M282.86,207.49l-37.16,23.98c-14.44-54.16-55.82-76.82-108.63-80.85l-18.84-1.44H10.44s-.04-57.97-.04-57.97l139.02.02c54.77,2.12,100.84,17.3,139.89,56.37,10.9,10.91,19.89,22.44,27.69,35.88-11.57,8.7-22.35,16.41-34.13,24.02Z"/>
    <path class="st1" d="M314.82,400.91c-.91-28.32-4.86-58.66-14.78-85.81,23.07-17.91,45.04-36.08,65.73-59.01,11.69,22.24,20.04,44.85,27.16,68.77l6.96,25.91c6.78,25.25-12.23,50.06-38.37,50.09l-46.7.05Z"/>
  </g>
</svg>